<svg width="189" height="89" fill="none" xmlns="http://www.w3.org/2000/svg"><g clip-path="url(#a)"><path fill-rule="evenodd" clip-rule="evenodd" d="M189 .444H0v72h78l16 16 16-16h79v-72Z" fill="#FCB72B"/><path d="M48.593 43.86h.432V28.644h3.168v16.8H46l-1.968-15.216H43.6v15.216h-3.168v-16.8h6.192l1.968 15.216Zm8.536-3.384c.016.352.096.68.24.984.16.288.368.544.624.768.272.208.576.376.912.504.352.112.72.168 1.104.168.752 0 1.328-.128 1.728-.384.4-.272.688-.592.864-.96l2.592 1.44a5.473 5.473 0 0 1-.6.96 4.26 4.26 0 0 1-1.008.888c-.4.272-.896.496-1.488.672-.576.176-1.256.264-2.04.264-.896 0-1.712-.144-2.448-.432a5.534 5.534 0 0 1-1.92-1.248c-.528-.544-.944-1.208-1.248-1.992-.288-.784-.432-1.672-.432-2.664V39.3c0-.912.152-1.744.456-2.496a5.808 5.808 0 0 1 1.296-1.92 5.77 5.77 0 0 1 1.896-1.224 6.1 6.1 0 0 1 2.352-.456c1.024 0 1.904.184 2.64.552.736.352 1.344.808 1.824 1.368.48.544.832 1.152 1.056 1.824.224.656.336 1.296.336 1.92v1.608h-8.736Zm2.856-4.536c-.768 0-1.392.2-1.872.6-.48.384-.792.832-.936 1.344h5.616c-.096-.56-.4-1.024-.912-1.392-.496-.368-1.128-.552-1.896-.552Zm19.767 9.504h-5.231l-.672-9.024v-1.44h-.577v1.44l-.672 9.024H67.37l-.793-11.904h2.785l.527 9.024v1.44h.576v-1.44l.6-9.024h4.993l.6 9.024v1.44h.576v-1.44l.527-9.024h2.784l-.791 11.904Zm19.472-5.904h-.72L93.68 28.644h3.456l3.456 8.016h.432l3.456-8.016h3.456l-4.824 10.896h-.72v5.904h-3.168V39.54Zm21.4.096c0 .992-.168 1.872-.504 2.64a5.753 5.753 0 0 1-1.368 1.92 6.078 6.078 0 0 1-1.992 1.176 6.661 6.661 0 0 1-2.328.408c-.816 0-1.6-.136-2.352-.408a6.135 6.135 0 0 1-1.968-1.176 5.753 5.753 0 0 1-1.368-1.92c-.336-.768-.504-1.648-.504-2.64v-.288c0-.976.168-1.84.504-2.592a5.694 5.694 0 0 1 1.368-1.944 5.923 5.923 0 0 1 1.968-1.2 6.862 6.862 0 0 1 2.352-.408c.816 0 1.592.136 2.328.408a5.871 5.871 0 0 1 1.992 1.2 5.694 5.694 0 0 1 1.368 1.944c.336.752.504 1.616.504 2.592v.288Zm-6.192 3.264c.432 0 .84-.072 1.224-.216a2.97 2.97 0 0 0 1.008-.624c.288-.272.512-.6.672-.984.176-.4.264-.848.264-1.344v-.48c0-.496-.088-.936-.264-1.32-.16-.4-.384-.736-.672-1.008a2.97 2.97 0 0 0-1.008-.624 3.457 3.457 0 0 0-1.224-.216c-.432 0-.84.072-1.224.216a2.97 2.97 0 0 0-1.008.624c-.288.272-.52.608-.696 1.008-.16.384-.24.824-.24 1.32v.48c0 .496.08.944.24 1.344.176.384.408.712.696.984s.624.48 1.008.624c.384.144.792.216 1.224.216Zm7.576-9.36h5.04v1.728h.432c.224-.656.6-1.16 1.128-1.512.544-.368 1.192-.552 1.944-.552 1.184 0 2.136.376 2.856 1.128.72.736 1.08 1.864 1.08 3.384v.528l-3.12.288v-.336c0-.656-.168-1.176-.504-1.56-.336-.4-.84-.6-1.512-.6s-1.2.232-1.584.696c-.384.464-.576 1.128-.576 1.992v3.84h2.736v2.88h-8.208v-2.88h2.448V36.42h-2.16v-2.88Zm18.184 4.368h.576l3.168-4.368h3.312v.144l-3.84 5.448v.432l4.224 5.736v.144h-3.456l-3.408-4.656h-.576v4.656h-3.024v-16.8h3.024v9.264Z" fill="#495567"/></g><defs><clipPath id="a"><path fill="#fff" transform="translate(0 .444)" d="M0 0h189v88H0z"/></clipPath></defs></svg>